<svg width="1280" height="800" viewBox="0 0 1280 800" fill="none" xmlns="http://www.w3.org/2000/svg">
  <defs>
    <linearGradient id="bg" x1="120" y1="80" x2="1120" y2="720" gradientUnits="userSpaceOnUse">
      <stop stop-color="#0E1A2A" />
      <stop offset="1" stop-color="#1E3A5F" />
    </linearGradient>
    <linearGradient id="card" x1="0" y1="0" x2="0" y2="1">
      <stop stop-color="#F9FCFF" />
      <stop offset="1" stop-color="#DCEEFF" />
    </linearGradient>
    <linearGradient id="accent" x1="0" y1="0" x2="1" y2="1">
      <stop stop-color="#2CD3FF" />
      <stop offset="1" stop-color="#46E6A5" />
    </linearGradient>
    <filter id="shadow" x="0" y="0" width="1280" height="800" filterUnits="userSpaceOnUse" color-interpolation-filters="sRGB">
      <feDropShadow dx="0" dy="18" stdDeviation="22" flood-color="#06101C" flood-opacity="0.35" />
    </filter>
  </defs>

  <rect width="1280" height="800" rx="32" fill="url(#bg)" />

  <circle cx="195" cy="145" r="124" fill="#153353" fill-opacity="0.55" />
  <circle cx="1080" cy="700" r="162" fill="#1D4F73" fill-opacity="0.52" />
  <circle cx="1048" cy="112" r="92" fill="#2A7FA6" fill-opacity="0.34" />

  <g filter="url(#shadow)">
    <rect x="140" y="135" width="1000" height="530" rx="26" fill="#102338" stroke="#2C4E70" stroke-width="2" />
  </g>

  <rect x="185" y="180" width="520" height="440" rx="18" fill="url(#card)" />
  <rect x="215" y="215" width="460" height="255" rx="14" fill="#ECF5FF" />
  <rect x="235" y="235" width="196" height="160" rx="12" fill="url(#accent)" />
  <rect x="450" y="235" width="205" height="20" rx="10" fill="#B7CCE3" />
  <rect x="450" y="268" width="178" height="16" rx="8" fill="#C5D8EA" />
  <rect x="450" y="295" width="146" height="16" rx="8" fill="#D3E3F1" />
  <rect x="450" y="357" width="132" height="30" rx="15" fill="#12314D" />
  <rect x="215" y="489" width="220" height="24" rx="12" fill="#B5CAE0" />
  <rect x="215" y="523" width="330" height="16" rx="8" fill="#D3E1EF" />
  <rect x="215" y="550" width="290" height="16" rx="8" fill="#DCE8F4" />

  <rect x="740" y="205" width="350" height="420" rx="18" fill="#0F1E30" stroke="#2D506F" stroke-width="2" />
  <rect x="772" y="242" width="286" height="36" rx="10" fill="#173954" />
  <rect x="772" y="302" width="286" height="15" rx="7.5" fill="#2A4D6C" />
  <rect x="772" y="331" width="250" height="15" rx="7.5" fill="#365A79" />
  <rect x="772" y="360" width="206" height="15" rx="7.5" fill="#416583" />
  <rect x="772" y="408" width="286" height="1" fill="#335675" />
  <rect x="772" y="440" width="286" height="52" rx="12" fill="#133756" />
  <rect x="772" y="509" width="286" height="74" rx="14" fill="#0D2942" />

  <path d="M816 284L838 339H956L979 284H816Z" fill="#3AC9FF" fill-opacity="0.28" />
  <path d="M831 309H963" stroke="#7DE2FF" stroke-width="6" stroke-linecap="round" />
  <circle cx="856" cy="354" r="12" fill="#84E8FF" />
  <circle cx="936" cy="354" r="12" fill="#84E8FF" />

  <path d="M980 484C980 456.386 1002.39 434 1030 434C1057.61 434 1080 456.386 1080 484V534H980V484Z" fill="#1E4F71" />
  <rect x="994" y="492" width="72" height="80" rx="12" fill="#2CD3FF" />
  <path d="M1018 522L1028 534L1048 510" stroke="#0D2B46" stroke-width="7" stroke-linecap="round" stroke-linejoin="round" />

  <circle cx="706" cy="230" r="36" fill="#163858" />
  <path d="M694 230H718" stroke="#7CE5FF" stroke-width="6" stroke-linecap="round" />
  <path d="M706 218V242" stroke="#7CE5FF" stroke-width="6" stroke-linecap="round" />
</svg>
